# Blender v2.90.0 OBJ File: 'tombstone.blend'
# www.blender.org
mtllib tombstone.mtl
o Cube
v 0.228796 2.191952 -1.000000
v 0.228796 0.022508 -0.846463
v 0.228796 2.191952 1.000000
v 0.228796 0.022508 0.877475
v -0.228796 2.191952 -1.000000
v -0.228796 0.022508 -0.846463
v -0.228796 2.191952 1.000000
v -0.228796 0.022508 0.877475
v -0.228796 0.022508 0.000000
v 0.228796 3.000307 0.000000
v -0.228796 3.000307 0.000000
v 0.228796 0.022508 0.000000
v -0.228796 2.850925 -0.500000
v 0.228796 0.022508 -0.500000
v -0.228796 0.022508 -0.500000
v 0.228796 2.850925 -0.500000
v -0.228796 0.022508 0.500000
v 0.228796 2.870742 0.500000
v -0.228796 2.870742 0.500000
v 0.228796 0.022508 0.500000
v 0.228796 1.107230 -0.923232
v -0.228796 1.107230 0.938737
v 0.228796 1.107230 0.938737
v -0.228796 1.107230 -0.923232
v 0.153212 1.511408 0.000000
v -0.095081 1.511408 0.000000
v 0.153212 1.436717 -0.500000
v -0.095081 1.436717 -0.500000
v -0.095081 1.446625 0.500000
v 0.153212 1.446625 0.500000
vt 0.625000 0.687500
vt 0.875000 0.687500
vt 0.875000 0.750000
vt 0.625000 0.750000
vt 0.500000 0.750000
vt 0.625000 1.000000
vt 0.500000 1.000000
vt 0.500000 0.187500
vt 0.625000 0.187500
vt 0.625000 0.250000
vt 0.500000 0.250000
vt 0.125000 0.687500
vt 0.375000 0.687500
vt 0.375000 0.750000
vt 0.125000 0.750000
vt 0.500000 0.687500
vt 0.625000 0.500000
vt 0.500000 0.500000
vt 0.500000 0.562500
vt 0.625000 0.562500
vt 0.625000 0.625000
vt 0.500000 0.625000
vt 0.125000 0.562500
vt 0.375000 0.562500
vt 0.375000 0.625000
vt 0.125000 0.625000
vt 0.500000 0.062500
vt 0.625000 0.062500
vt 0.625000 0.125000
vt 0.500000 0.125000
vt 0.875000 0.562500
vt 0.875000 0.625000
vt 0.875000 0.500000
vt 0.125000 0.500000
vt 0.375000 0.500000
vt 0.500000 0.000000
vt 0.625000 0.000000
vt 0.375000 0.000000
vt 0.375000 0.062500
vt 0.375000 0.125000
vt 0.375000 0.187500
vt 0.375000 0.250000
vt 0.375000 1.000000
vn 0.0000 0.5931 0.8051
vn 0.0000 -0.0564 0.9984
vn -0.9803 -0.0466 0.1918
vn 0.0000 -1.0000 0.0000
vn 0.9936 -0.0273 -0.1096
vn 0.0000 -0.0706 -0.9975
vn 0.9986 -0.0520 0.0117
vn -0.9957 -0.0914 -0.0178
vn 0.0000 0.9582 -0.2863
vn 0.0000 0.6045 -0.7966
vn 0.9936 -0.0267 0.1099
vn -0.9956 -0.0917 0.0205
vn -0.9804 -0.0476 -0.1913
vn 0.9986 -0.0518 -0.0101
vn 0.0000 0.9680 0.2508
vn 0.9987 0.0518 0.0034
vn -0.9888 0.0561 -0.1387
vn -0.9958 0.0917 -0.0069
vn 0.9959 0.0327 0.0838
vn -0.9958 0.0914 0.0059
vn 0.9986 0.0520 -0.0039
vn 0.9964 0.0319 -0.0790
vn -0.9875 0.0574 0.1470
usemtl Material
s off
f 18/1/1 19/2/1 7/3/1 3/4/1
f 23/5/2 3/4/2 7/6/2 22/7/2
f 28/8/3 13/9/3 5/10/3 24/11/3
f 17/12/4 20/13/4 4/14/4 8/15/4
f 30/16/5 18/1/5 3/4/5 23/5/5
f 24/11/6 5/10/6 1/17/6 21/18/6
f 27/19/7 16/20/7 10/21/7 25/22/7
f 15/23/4 14/24/4 12/25/4 9/26/4
f 29/27/8 19/28/8 11/29/8 26/30/8
f 16/20/9 13/31/9 11/32/9 10/21/9
f 1/17/10 5/33/10 13/31/10 16/20/10
f 6/34/4 2/35/4 14/24/4 15/23/4
f 21/18/11 1/17/11 16/20/11 27/19/11
f 26/30/12 11/29/12 13/9/12 28/8/12
f 22/36/13 7/37/13 19/28/13 29/27/13
f 25/22/14 10/21/14 18/1/14 30/16/14
f 9/26/4 12/25/4 20/13/4 17/12/4
f 10/21/15 11/32/15 19/2/15 18/1/15
f 12/25/16 25/22/16 30/16/16 20/13/16
f 8/38/17 22/36/17 29/27/17 17/39/17
f 9/40/18 26/30/18 28/8/18 15/41/18
f 2/35/19 21/18/19 27/19/19 14/24/19
f 17/39/20 29/27/20 26/30/20 9/40/20
f 14/24/21 27/19/21 25/22/21 12/25/21
f 6/42/6 24/11/6 21/18/6 2/35/6
f 20/13/22 30/16/22 23/5/22 4/14/22
f 15/41/23 28/8/23 24/11/23 6/42/23
f 4/14/2 23/5/2 22/7/2 8/43/2
